<?xml version="1.0" encoding="UTF-8" standalone="no"?>
<!-- Created with Inkscape (http://www.inkscape.org/) -->

<svg
   xmlns:dc="http://purl.org/dc/elements/1.1/"
   xmlns:cc="http://creativecommons.org/ns#"
   xmlns:rdf="http://www.w3.org/1999/02/22-rdf-syntax-ns#"
   xmlns:svg="http://www.w3.org/2000/svg"
   xmlns="http://www.w3.org/2000/svg"
   xmlns:sodipodi="http://sodipodi.sourceforge.net/DTD/sodipodi-0.dtd"
   xmlns:inkscape="http://www.inkscape.org/namespaces/inkscape"
   width="210mm"
   height="297mm"
   viewBox="0 0 210 297"
   version="1.1"
   id="svg8"
   inkscape:export-filename="/home/ashkan/pendar-logo.png"
   inkscape:export-xdpi="600"
   inkscape:export-ydpi="600"
   inkscape:version="0.92.3 (2405546, 2018-03-11)"
   sodipodi:docname="logo-rebuild.svg">
  <defs
     id="defs2" />
  <sodipodi:namedview
     id="base"
     pagecolor="#ffffff"
     bordercolor="#666666"
     borderopacity="1.0"
     inkscape:pageopacity="0.0"
     inkscape:pageshadow="2"
     inkscape:zoom="2.8"
     inkscape:cx="312.41864"
     inkscape:cy="680.44261"
     inkscape:document-units="mm"
     inkscape:current-layer="layer1"
     showgrid="false"
     showguides="true"
     inkscape:guide-bbox="true"
     inkscape:window-width="1299"
     inkscape:window-height="704"
     inkscape:window-x="67"
     inkscape:window-y="27"
     inkscape:window-maximized="1">
    <sodipodi:guide
       position="80.272692,171.27047"
       orientation="1,0"
       id="guide4047"
       inkscape:locked="false" />
    <sodipodi:guide
       position="83.532736,171.12873"
       orientation="0,1"
       id="guide4049"
       inkscape:locked="false" />
  </sodipodi:namedview>
  <metadata
     id="metadata5">
    <rdf:RDF>
      <cc:Work
         rdf:about="">
        <dc:format>image/svg+xml</dc:format>
        <dc:type
           rdf:resource="http://purl.org/dc/dcmitype/StillImage" />
        <dc:title></dc:title>
      </cc:Work>
    </rdf:RDF>
  </metadata>
  <g
     inkscape:label="Layer 1"
     inkscape:groupmode="layer"
     id="layer1">
    <g
       id="g4057">
      <path
         style="fill:#bcc1c4;stroke-width:0.35277778"
         d="m 90.627879,123.24519 c -1.534944,-0.35796 -2.078331,-2.18238 -1.234723,-4.14556 l 0.303188,-0.70556 0.0248,0.77622 c 0.03473,1.08727 0.859544,1.43283 2.96935,1.244 2.453366,-0.21957 2.551128,-0.39793 1.470327,-2.68256 l -0.936133,-1.97882 0.214565,-0.67603 c 0.11801,-0.37182 0.446782,-0.86876 0.730603,-1.10431 l 0.516038,-0.42828 0.680545,1.54295 c 0.3743,0.84862 0.7466,2.25732 0.827333,3.13044 l 0.146789,1.5875 3.405466,0.0547 3.405463,0.0547 v -0.6973 c -0.39983,-1.06634 -1.54334,-2.90124 -1.44093,-2.59626 0,0 1.10445,-1.24598 1.78852,-2.10758 l 0.352,0.52916 c 0.31035,0.46655 1.27012,2.92041 1.62128,4.14514 l 0.12643,0.44097 h 3.22382 3.22381 l 0.26219,-0.38112 c -0.14164,-0.33955 -0.98713,-1.16551 -1.18592,-1.66223 -0.99357,-0.6628 -0.28372,-1.1106 0.30562,-1.94354 0,0 0.73272,-0.94432 0.90682,-0.69354 l 1.05196,1.51532 0.70051,1.37312 v 2.32015 2.32016 l -5.37986,0.0259 c -9.972258,0.0479 -13.841858,0.15344 -14.816664,0.40413 -1.621912,0.4171 -2.523786,0.51054 -3.263194,0.3381 z m 0.201836,-9.49708 h 0.857408 0.857408 l 0.07087,1.79155 c 0.02535,0.64083 -1.419615,2.25437 -1.743041,2.25437 z m -0.588342,-0.46016 c -0.759751,-0.30718 -3.317661,-3.0831 -3.317661,-3.60043 0,-0.4241 0.210869,-0.36541 1.490779,0.41496 l 1.155054,0.70423 1.183445,0.10094 0.787751,0.036 0.994455,-0.0231 0.799562,-0.11171 1.55077,-1.11368 c 0.852924,-0.61252 1.647057,-1.41705 1.764742,-1.78784 l 0.213972,-0.67417 -0.974479,-1.40617 -0.974479,-1.40617 0.942212,-0.94222 0.942212,-0.94221 0.783306,0.78331 0.391652,0.72238 0.344406,0.95862 0.02032,0.96508 c -0.06628,4.58497 -4.63967,8.71992 -8.098021,7.32167 z m 0.251191,-6.08641 -0.141251,-2.63527 0.843837,-1.14441 0.843836,-1.14441 0.238434,1.53192 c 0.131139,0.84256 0.250201,2.68286 0.264583,4.08956 l 0.04977,2.67576 -1.995052,1e-5 c 0,0 -0.07913,-2.49244 -0.104164,-3.37316 z"
         id="path3937"
         inkscape:connector-curvature="0"
         sodipodi:nodetypes="cccccccccccsccccsccsccccccscccccccccccsccccsccccccccccccccccsccccccssccc" />
      <path
         style="fill:#222072;stroke-width:0.35277778"
         d="m 97.695382,118.63095 -1.001998,-1.04586 1.119524,-1.14507 1.119525,-1.14508 1.124737,1.12474 1.12473,1.12473 -1.02148,1.0662 -1.249224,1.21281 -1.215814,-1.19261 z"
         id="path3933"
         inkscape:connector-curvature="0"
         sodipodi:nodetypes="cccccccccc" />
      <g
         transform="translate(27.545016,-2.1534996)"
         style="fill:#bcc1c4;fill-opacity:1"
         id="g4043">
        <path
           style="fill:#bcc1c4;fill-opacity:1;stroke-width:0.234688"
           d="m 82.21192,130.62281 -0.663051,-0.69947 0.740822,-0.76583 0.740823,-0.76583 0.74427,0.75223 0.744273,0.75221 -0.675949,0.71309 -0.826647,0.81112 -0.804541,-0.79763 z"
           id="path3933-3"
           inkscape:connector-curvature="0"
           sodipodi:nodetypes="cccccccccc" />
        <path
           style="fill:#bcc1c4;fill-opacity:1;stroke-width:0.234688"
           d="m 80.629761,128.02477 -0.663051,-0.69947 0.740822,-0.76583 0.740823,-0.76583 0.74427,0.75223 0.744273,0.75221 -0.675949,0.71309 -0.826647,0.81112 -0.804541,-0.79763 z"
           id="path3933-3-6"
           inkscape:connector-curvature="0"
           sodipodi:nodetypes="cccccccccc" />
        <path
           style="fill:#bcc1c4;fill-opacity:1;stroke-width:0.234688"
           d="m 83.722628,128.00476 -0.663051,-0.69947 0.740822,-0.76583 0.740823,-0.76583 0.74427,0.75223 0.744274,0.75221 -0.67595,0.71309 -0.826647,0.81112 -0.804541,-0.79763 z"
           id="path3933-3-7"
           inkscape:connector-curvature="0"
           sodipodi:nodetypes="cccccccccc" />
      </g>
    </g>
  </g>
</svg>
